<svg width="0" height="0" class="hidden">
  <symbol xmlns="http://www.w3.org/2000/svg" viewBox="0 96 960 960" id="watch" fill="#1A1772">
    <path d="M180 936q-24.75 0-42.375-17.625T120 876V276q0-24.75 17.625-42.375T180 216h600q24.75 0 42.375 17.625T840 276v600q0 24.75-17.625 42.375T780 936H180Zm0-60h600V356H180v520Zm300.041-105Q400 771 337 727.849q-63-43.152-92-112Q274 547 336.959 504t143-43Q560 461 623 504.151q63 43.152 92 112Q686 685 623.041 728t-143 43ZM480 721q57 0 104.949-27.825T660 616q-27.102-49.35-75.051-77.175Q537 511 480 511t-104.949 27.825Q327.102 566.65 300 616q27.102 49.35 75.051 77.175Q423 721 480 721Zm0-105Zm.118 50Q501 666 515.5 651.382q14.5-14.617 14.5-35.5Q530 595 515.382 580.5q-14.617-14.5-35.5-14.5Q459 566 444.5 580.618q-14.5 14.617-14.5 35.5Q430 637 444.618 651.5q14.617 14.5 35.5 14.5Z"></path>
  </symbol>
  <symbol xmlns="http://www.w3.org/2000/svg" viewBox="0 96 960 960" id="folders" fill="#1A1772">
    <path d="M140 896q-23 0-41.5-18.5T80 836V316q0-23 18.5-41.5T140 256h281l60 60h339q23 0 41.5 18.5T880 376H455l-60-60H140v520l102-400h698L833 850q-6 24-22 35t-41 11H140Zm63-60h572l84-340H287l-84 340Zm0 0 84-340-84 340Zm-63-460v-60 60Z"></path>
  </symbol>
  <symbol xmlns="http://www.w3.org/2000/svg" viewBox="0 96 960 960" id="movies" fill="#1A1772">
    <path d="M160 936V216h60v60h120v-60h280v60h120v-60h60v720h-60v-60H620v60H340v-60H220v60h-60Zm60-120h120V696H220v120Zm0-180h120V516H220v120Zm0-180h120V336H220v120Zm400 360h120V696H620v120Zm0-180h120V516H620v120Zm0-180h120V336H620v120ZM400 876h160V276H400v600Zm0-600h160-160Z"></path>
  </symbol>
  <symbol xmlns="http://www.w3.org/2000/svg" viewBox="0 96 960 960" id="shows" fill="#1A1772">
    <path d="m383 706 267-170-267-170v340Zm-53 230v-80H140q-24 0-42-18t-18-42V276q0-24 18-42t42-18h680q24 0 42 18t18 42v520q0 24-18 42t-42 18H630v80H330ZM140 796h680V276H140v520Zm0 0V276v520Z"></path>
  </symbol>
  <symbol xmlns="http://www.w3.org/2000/svg" viewBox="0 96 960 960" id="store" fill="#1A1772">
    <path d="M180 936q-24 0-42-18t-18-42V353q0-15 3-25.5t11-19.5l56-76q8-9 18.5-12.5t24.886-3.5h493.228Q741 216 751 219.5t18 12.5l57 76q8 9 11 19.5t3 25.5v523q0 24-18 42t-42 18H180Zm17-614h565l-36.409-46H233l-36 46Zm-17 60v494h600V382H180Zm300 404 156-156-40-40-86 86V475h-60v201l-86-86-40 40 156 156Zm-300 90h600-600Z"></path>
  </symbol>
  <symbol xmlns="http://www.w3.org/2000/svg" viewBox="0 -960 960 960" fill="#CB1336" id="add_circle">
    <path d="M453-280h60v-166h167v-60H513v-174h-60v174H280v60h173v166Zm27.266 200q-82.734 0-155.5-31.5t-127.266-86q-54.5-54.5-86-127.341Q80-397.681 80-480.5q0-82.819 31.5-155.659Q143-709 197.5-763t127.341-85.5Q397.681-880 480.5-880q82.819 0 155.659 31.5Q709-817 763-763t85.5 127Q880-563 880-480.266q0 82.734-31.5 155.5T763-197.684q-54 54.316-127 86Q563-80 480.266-80Z"></path>
  </symbol>
</svg>