<svg width="0" height="0" class="hidden">
  <symbol xmlns="http://www.w3.org/2000/svg" viewBox="0 96 960 960" id="watch" fill="#1A1772">
    <path d="M180 936q-24.75 0-42.375-17.625T120 876V276q0-24.75 17.625-42.375T180 216h600q24.75 0 42.375 17.625T840 276v600q0 24.75-17.625 42.375T780 936H180Zm0-60h600V356H180v520Zm300.041-105Q400 771 337 727.849q-63-43.152-92-112Q274 547 336.959 504t143-43Q560 461 623 504.151q63 43.152 92 112Q686 685 623.041 728t-143 43ZM480 721q57 0 104.949-27.825T660 616q-27.102-49.35-75.051-77.175Q537 511 480 511t-104.949 27.825Q327.102 566.65 300 616q27.102 49.35 75.051 77.175Q423 721 480 721Zm0-105Zm.118 50Q501 666 515.5 651.382q14.5-14.617 14.5-35.5Q530 595 515.382 580.5q-14.617-14.5-35.5-14.5Q459 566 444.5 580.618q-14.5 14.617-14.5 35.5Q430 637 444.618 651.5q14.617 14.5 35.5 14.5Z"></path>
  </symbol>
  <symbol xmlns="http://www.w3.org/2000/svg" viewBox="0 96 960 960" id="folders" fill="#1A1772">
    <path d="M140 896q-23 0-41.5-18.5T80 836V316q0-23 18.5-41.5T140 256h281l60 60h339q23 0 41.5 18.5T880 376H455l-60-60H140v520l102-400h698L833 850q-6 24-22 35t-41 11H140Zm63-60h572l84-340H287l-84 340Zm0 0 84-340-84 340Zm-63-460v-60 60Z"></path>
  </symbol>
  <symbol xmlns="http://www.w3.org/2000/svg" viewBox="0 96 960 960" id="movies" fill="#1A1772">
    <path d="M160 936V216h60v60h120v-60h280v60h120v-60h60v720h-60v-60H620v60H340v-60H220v60h-60Zm60-120h120V696H220v120Zm0-180h120V516H220v120Zm0-180h120V336H220v120Zm400 360h120V696H620v120Zm0-180h120V516H620v120Zm0-180h120V336H620v120ZM400 876h160V276H400v600Zm0-600h160-160Z"></path>
  </symbol>
  <symbol xmlns="http://www.w3.org/2000/svg" viewBox="0 96 960 960" id="shows" fill="#1A1772">
    <path d="m383 706 267-170-267-170v340Zm-53 230v-80H140q-24 0-42-18t-18-42V276q0-24 18-42t42-18h680q24 0 42 18t18 42v520q0 24-18 42t-42 18H630v80H330ZM140 796h680V276H140v520Zm0 0V276v520Z"></path>
  </symbol>
  <symbol xmlns="http://www.w3.org/2000/svg" viewBox="0 96 960 960" id="store" fill="#1A1772">
    <path d="M180 936q-24 0-42-18t-18-42V353q0-15 3-25.5t11-19.5l56-76q8-9 18.5-12.5t24.886-3.5h493.228Q741 216 751 219.5t18 12.5l57 76q8 9 11 19.5t3 25.5v523q0 24-18 42t-42 18H180Zm17-614h565l-36.409-46H233l-36 46Zm-17 60v494h600V382H180Zm300 404 156-156-40-40-86 86V475h-60v201l-86-86-40 40 156 156Zm-300 90h600-600Z"></path>
  </symbol>
  <symbol xmlns="http://www.w3.org/2000/svg" viewBox="0 -960 960 960" fill="#CB1336" id="add_circle">
    <path d="M453-280h60v-166h167v-60H513v-174h-60v174H280v60h173v166Zm27.266 200q-82.734 0-155.5-31.5t-127.266-86q-54.5-54.5-86-127.341Q80-397.681 80-480.5q0-82.819 31.5-155.659Q143-709 197.5-763t127.341-85.5Q397.681-880 480.5-880q82.819 0 155.659 31.5Q709-817 763-763t85.5 127Q880-563 880-480.266q0 82.734-31.5 155.5T763-197.684q-54 54.316-127 86Q563-80 480.266-80Z"></path>
  </symbol>
  <symbol xmlns="http://www.w3.org/2000/svg" viewBox="0 0 32 32" id="github-logo">
    <path d="M16 .396c-8.839 0-16 7.167-16 16c0 7.073 4.584 13.068 10.937 15.183c.803.151 1.093-.344 1.093-.772c0-.38-.009-1.385-.015-2.719c-4.453.964-5.391-2.151-5.391-2.151c-.729-1.844-1.781-2.339-1.781-2.339c-1.448-.989.115-.968.115-.968c1.604.109 2.448 1.645 2.448 1.645c1.427 2.448 3.744 1.74 4.661 1.328c.14-1.031.557-1.74 1.011-2.135c-3.552-.401-7.287-1.776-7.287-7.907c0-1.751.62-3.177 1.645-4.297c-.177-.401-.719-2.031.141-4.235c0 0 1.339-.427 4.4 1.641a15.436 15.436 0 0 1 4-.541c1.36.009 2.719.187 4 .541c3.043-2.068 4.381-1.641 4.381-1.641c.859 2.204.317 3.833.161 4.235c1.015 1.12 1.635 2.547 1.635 4.297c0 6.145-3.74 7.5-7.296 7.891c.556.479 1.077 1.464 1.077 2.959c0 2.14-.02 3.864-.02 4.385c0 .416.28.916 1.104.755c6.4-2.093 10.979-8.093 10.979-15.156c0-8.833-7.161-16-16-16z"></path>
  </symbol>
  <symbol xmlns="http://www.w3.org/2000/svg" viewBox="0 -960 960 960" id="search-icon">
    <path d="M784-120 532-372q-30 24-69 38t-83 14q-109 0-184.5-75.5T120-580q0-109 75.5-184.5T380-840q109 0 184.5 75.5T640-580q0 44-14 83t-38 69l252 252-56 56ZM380-400q75 0 127.5-52.5T560-580q0-75-52.5-127.5T380-760q-75 0-127.5 52.5T200-580q0 75 52.5 127.5T380-400Z"></path>
  </symbol>
  <symbol xmlns="http://www.w3.org/2000/svg" viewBox="0 -960 960 960" id="add-icon">
    <path d="M440-440H200v-80h240v-240h80v240h240v80H520v240h-80v-240Z"></path>
  </symbol>
  <symbol xmlns="http://www.w3.org/2000/svg" viewBox="0 -960 960 960" id="star-rating-icon">
    <path d="M480-268 332-155q-11 9-24 8.5t-23-7.5q-10-7-15.5-19t-.5-26l57-185-145-103q-12-8-15-21t1-24q4-11 14-19.5t24-8.5h179l58-192q5-14 15.5-21.5T480-781q12 0 22.5 7.5T518-752l58 192h179q14 0 24 8.5t14 19.5q4 11 1 24t-15 21L634-384l57 185q5 14-.5 26T675-154q-10 7-23 7.5t-24-8.5L480-268Z"></path>
  </symbol>
  <symbol fill="none" xmlns="http://www.w3.org/2000/svg" viewBox="0 0 42 34" id="folder">
    <path d="M16.8337 0.333252H0.166992V33.6666H41.8337V4.49992H21.0003L16.8337 0.333252Z" fill="#F6F6FF"></path>
  </symbol>
  <symbol fill="none" xmlns="http://www.w3.org/2000/svg" viewBox="0 0 23 30" id="trash">
    <path d="M1.64286 26.6667C1.64286 28.5 3.12143 30 4.92857 30H18.0714C19.8786 30 21.3571 28.5 21.3571 26.6667V6.66667H1.64286V26.6667ZM23 1.66667H17.25L15.6071 0H7.39286L5.75 1.66667H0V5H23V1.66667Z" fill="#F6F6FF"></path>
  </symbol>
  <symbol fill="none" xmlns="http://www.w3.org/2000/svg" viewBox="0 0 50 50" id="backlog">
    <path d="M0 22.2222V0H22.2222V22.2222H0ZM0 50V27.7778H22.2222V50H0ZM27.7778 22.2222V0H50V22.2222H27.7778ZM27.7778 50V27.7778H50V50H27.7778ZM5.55556 16.6667H16.6667V5.55556H5.55556V16.6667ZM33.3333 16.6667H44.4444V5.55556H33.3333V16.6667ZM33.3333 44.4444H44.4444V33.3333H33.3333V44.4444ZM5.55556 44.4444H16.6667V33.3333H5.55556V44.4444Z" fill="#F6F6FF"></path>
  </symbol>
  <symbol fill="none" xmlns="http://www.w3.org/2000/svg" viewBox="0 0 49 33" id="filter">
    <path d="M0 32.5H16.3333V27.1667H0V32.5ZM0 0.5V5.83333H49V0.5H0ZM0 19.1667H32.6667V13.8333H0V19.1667Z" fill="#F6F6FF"></path>
  </symbol>
</svg>