<svg width="17" height="17" viewBox="0 0 17 17" fill="none" xmlns="http://www.w3.org/2000/svg">
<path d="M12.2083 10.0833H11.4842L11.2275 9.83584C12.1569 8.75786 12.6677 7.38164 12.6667 5.95834C12.6667 4.77989 12.3172 3.62791 11.6625 2.64806C11.0078 1.66822 10.0772 0.904526 8.98849 0.453554C7.89975 0.00258165 6.70173 -0.115413 5.54592 0.11449C4.39012 0.344394 3.32845 0.91187 2.49516 1.74516C1.66187 2.57845 1.09439 3.64012 0.86449 4.79592C0.634587 5.95173 0.752582 7.14975 1.20355 8.23849C1.65453 9.32723 2.41822 10.2578 3.39806 10.9125C4.37791 11.5672 5.52989 11.9167 6.70834 11.9167C8.18417 11.9167 9.54084 11.3758 10.5858 10.4775L10.8333 10.7342V11.4583L15.4167 16.0325L16.7825 14.6667L12.2083 10.0833ZM6.70834 10.0833C4.42584 10.0833 2.58334 8.24084 2.58334 5.95834C2.58334 3.67584 4.42584 1.83334 6.70834 1.83334C8.99084 1.83334 10.8333 3.67584 10.8333 5.95834C10.8333 8.24084 8.99084 10.0833 6.70834 10.0833Z" fill="#F6F6FF"/>
</svg>
