<svg width="208" height="144" viewBox="0 0 208 144" fill="none" xmlns="http://www.w3.org/2000/svg">
<path d="M208 16V128C208 132.243 206.314 136.313 203.314 139.314C200.313 142.314 196.243 144 192 144H16C11.7565 144 7.68687 142.314 4.68629 139.314C1.68571 136.313 0 132.243 0 128V16C0 11.7565 1.68571 7.68687 4.68629 4.68629C7.68687 1.68571 11.7565 0 16 0H192C196.243 0 200.313 1.68571 203.314 4.68629C206.314 7.68687 208 11.7565 208 16ZM140 72C140 70.6536 139.659 69.329 139.011 68.1491C138.362 66.9692 137.426 65.972 136.29 65.25L92.29 37.25C91.0806 36.4816 89.687 36.0522 88.2549 36.0065C86.8228 35.9609 85.4047 36.3007 84.1488 36.9905C82.8929 37.6802 81.8453 38.6946 81.1155 39.9277C80.3857 41.1607 80.0004 42.5672 80 44V100C80.0004 101.433 80.3857 102.839 81.1155 104.072C81.8453 105.305 82.8929 106.32 84.1488 107.01C85.4047 107.699 86.8228 108.039 88.2549 107.993C89.687 107.948 91.0806 107.518 92.29 106.75L136.29 78.75C137.426 78.028 138.362 77.0308 139.011 75.8509C139.659 74.671 140 73.3464 140 72Z" fill="#F6F6FF"/>
</svg>
